<mxfile host="app.diagrams.net" modified="2021-11-03T18:23:13.669Z" agent="5.0 (Windows NT 10.0; Win64; x64) AppleWebKit/537.36 (KHTML, like Gecko) Chrome/94.0.4606.81 Safari/537.36 OPR/80.0.4170.63" etag="HQ_C2-JusvGf7v83uTqs" version="15.6.6" type="github">
  <diagram id="yQMnujrLuWFcyCCz4fXx" name="Page-1">
    <mxGraphModel dx="2232" dy="764" grid="0" gridSize="10" guides="1" tooltips="1" connect="1" arrows="1" fold="1" page="1" pageScale="1" pageWidth="850" pageHeight="1100" background="none" math="0" shadow="1">
      <root>
        <mxCell id="0" />
        <mxCell id="1" parent="0" />
        <mxCell id="xvFAfYp4AePDCk2riCzN-5" value="&lt;font style=&quot;font-size: 19px&quot;&gt;Սկիզբ&lt;/font&gt;" style="ellipse;whiteSpace=wrap;html=1;fontSize=25;fontColor=default;strokeColor=default;fillColor=default;" parent="1" vertex="1">
          <mxGeometry x="60" y="70" width="115" height="40" as="geometry" />
        </mxCell>
        <mxCell id="xvFAfYp4AePDCk2riCzN-6" value="row" style="shape=parallelogram;perimeter=parallelogramPerimeter;whiteSpace=wrap;html=1;fixedSize=1;fontSize=19;fontColor=default;strokeColor=default;fillColor=default;" parent="1" vertex="1">
          <mxGeometry x="67.5" y="140" width="100" height="30" as="geometry" />
        </mxCell>
        <mxCell id="xvFAfYp4AePDCk2riCzN-7" value="col" style="shape=parallelogram;perimeter=parallelogramPerimeter;whiteSpace=wrap;html=1;fixedSize=1;fontSize=19;fontColor=default;strokeColor=default;fillColor=default;" parent="1" vertex="1">
          <mxGeometry x="67.5" y="290" width="100" height="30" as="geometry" />
        </mxCell>
        <mxCell id="xvFAfYp4AePDCk2riCzN-17" value="" style="endArrow=none;html=1;rounded=0;labelBackgroundColor=default;fontSize=19;fontColor=default;strokeColor=default;strokeWidth=2;fillColor=default;" parent="1" edge="1">
          <mxGeometry width="50" height="50" relative="1" as="geometry">
            <mxPoint x="117" y="140" as="sourcePoint" />
            <mxPoint x="117" y="110" as="targetPoint" />
          </mxGeometry>
        </mxCell>
        <mxCell id="xvFAfYp4AePDCk2riCzN-45" value="" style="edgeStyle=orthogonalEdgeStyle;rounded=0;orthogonalLoop=1;jettySize=auto;html=1;labelBackgroundColor=default;fontSize=22;fontColor=default;strokeColor=default;strokeWidth=2;fillColor=default;" parent="1" source="xvFAfYp4AePDCk2riCzN-18" edge="1">
          <mxGeometry relative="1" as="geometry">
            <mxPoint x="-12.900000000000091" y="125" as="targetPoint" />
          </mxGeometry>
        </mxCell>
        <mxCell id="xvFAfYp4AePDCk2riCzN-18" value="&lt;font style=&quot;font-size: 14px&quot;&gt;row &amp;lt; 2 || row &amp;gt; K&lt;/font&gt;" style="rhombus;whiteSpace=wrap;html=1;fontSize=19;fontColor=default;strokeColor=default;fillColor=default;" parent="1" vertex="1">
          <mxGeometry x="36.639999999999986" y="190" width="161.72" height="70" as="geometry" />
        </mxCell>
        <mxCell id="xvFAfYp4AePDCk2riCzN-19" value="" style="endArrow=none;html=1;rounded=0;labelBackgroundColor=default;fontSize=14;fontColor=default;strokeColor=default;strokeWidth=2;fillColor=default;" parent="1" edge="1">
          <mxGeometry width="50" height="50" relative="1" as="geometry">
            <mxPoint x="117" y="190" as="sourcePoint" />
            <mxPoint x="116.99000000000001" y="170" as="targetPoint" />
          </mxGeometry>
        </mxCell>
        <mxCell id="xvFAfYp4AePDCk2riCzN-46" value="" style="endArrow=classic;html=1;rounded=0;labelBackgroundColor=default;fontSize=22;fontColor=default;strokeColor=default;strokeWidth=2;fillColor=default;" parent="1" edge="1">
          <mxGeometry width="50" height="50" relative="1" as="geometry">
            <mxPoint x="-10" y="130" as="sourcePoint" />
            <mxPoint x="120" y="130" as="targetPoint" />
          </mxGeometry>
        </mxCell>
        <mxCell id="xvFAfYp4AePDCk2riCzN-55" value="" style="edgeStyle=orthogonalEdgeStyle;rounded=0;orthogonalLoop=1;jettySize=auto;html=1;labelBackgroundColor=default;fontSize=22;fontColor=default;strokeColor=default;strokeWidth=2;fillColor=default;" parent="1" source="xvFAfYp4AePDCk2riCzN-47" edge="1">
          <mxGeometry relative="1" as="geometry">
            <mxPoint x="-12.900000000000091" y="277.5" as="targetPoint" />
          </mxGeometry>
        </mxCell>
        <mxCell id="xvFAfYp4AePDCk2riCzN-47" value="&lt;font style=&quot;font-size: 14px&quot;&gt;col &amp;lt; 2 || col &amp;gt; K&lt;/font&gt;" style="rhombus;whiteSpace=wrap;html=1;fontSize=19;fontColor=default;strokeColor=default;fillColor=default;" parent="1" vertex="1">
          <mxGeometry x="36.639999999999986" y="340" width="161.72" height="70" as="geometry" />
        </mxCell>
        <mxCell id="xvFAfYp4AePDCk2riCzN-48" value="" style="endArrow=none;html=1;rounded=0;labelBackgroundColor=default;fontSize=22;fontColor=default;strokeColor=default;strokeWidth=2;fillColor=default;" parent="1" edge="1">
          <mxGeometry width="50" height="50" relative="1" as="geometry">
            <mxPoint x="117" y="320" as="sourcePoint" />
            <mxPoint x="117" y="330" as="targetPoint" />
            <Array as="points">
              <mxPoint x="117" y="340" />
            </Array>
          </mxGeometry>
        </mxCell>
        <mxCell id="xvFAfYp4AePDCk2riCzN-59" value="" style="endArrow=none;html=1;rounded=0;labelBackgroundColor=default;fontSize=22;fontColor=default;strokeColor=default;strokeWidth=2;fillColor=default;" parent="1" edge="1">
          <mxGeometry width="50" height="50" relative="1" as="geometry">
            <mxPoint x="117" y="260" as="sourcePoint" />
            <mxPoint x="117" y="290" as="targetPoint" />
          </mxGeometry>
        </mxCell>
        <mxCell id="xvFAfYp4AePDCk2riCzN-61" value="" style="endArrow=none;html=1;rounded=0;labelBackgroundColor=default;fontSize=22;fontColor=default;strokeColor=default;strokeWidth=2;fillColor=default;" parent="1" edge="1">
          <mxGeometry width="50" height="50" relative="1" as="geometry">
            <mxPoint x="-13.360000000000014" y="280" as="sourcePoint" />
            <mxPoint x="36.639999999999986" y="280" as="targetPoint" />
          </mxGeometry>
        </mxCell>
        <mxCell id="xvFAfYp4AePDCk2riCzN-62" value="" style="endArrow=classic;html=1;rounded=0;labelBackgroundColor=default;fontSize=22;fontColor=default;strokeColor=default;strokeWidth=2;fillColor=default;" parent="1" edge="1">
          <mxGeometry width="50" height="50" relative="1" as="geometry">
            <mxPoint x="30" y="280" as="sourcePoint" />
            <mxPoint x="120" y="280" as="targetPoint" />
          </mxGeometry>
        </mxCell>
        <mxCell id="xvFAfYp4AePDCk2riCzN-63" value="&lt;font style=&quot;font-size: 18px&quot;&gt;i = 0; i &amp;lt; row; i++&lt;/font&gt;" style="shape=hexagon;perimeter=hexagonPerimeter2;whiteSpace=wrap;html=1;fixedSize=1;fontSize=22;fontColor=default;strokeColor=default;fillColor=default;" parent="1" vertex="1">
          <mxGeometry x="16.25" y="439" width="202.5" height="30" as="geometry" />
        </mxCell>
        <mxCell id="xvFAfYp4AePDCk2riCzN-65" value="&lt;font style=&quot;font-size: 18px&quot;&gt;j = 0; j &amp;lt; col; j++&lt;/font&gt;" style="shape=hexagon;perimeter=hexagonPerimeter2;whiteSpace=wrap;html=1;fixedSize=1;fontSize=22;fontColor=default;strokeColor=default;fillColor=default;" parent="1" vertex="1">
          <mxGeometry x="16.25" y="489" width="202.5" height="30" as="geometry" />
        </mxCell>
        <mxCell id="xvFAfYp4AePDCk2riCzN-66" value="" style="endArrow=none;html=1;rounded=0;labelBackgroundColor=default;fontSize=18;fontColor=default;strokeColor=default;strokeWidth=2;fillColor=default;" parent="1" edge="1">
          <mxGeometry width="50" height="50" relative="1" as="geometry">
            <mxPoint x="117" y="489" as="sourcePoint" />
            <mxPoint x="117" y="469" as="targetPoint" />
          </mxGeometry>
        </mxCell>
        <mxCell id="xvFAfYp4AePDCk2riCzN-68" value="X[ i ][ j ]" style="shape=parallelogram;perimeter=parallelogramPerimeter;whiteSpace=wrap;html=1;fixedSize=1;fontSize=19;fontColor=default;strokeColor=default;fillColor=default;" parent="1" vertex="1">
          <mxGeometry x="65" y="539" width="100" height="30" as="geometry" />
        </mxCell>
        <mxCell id="xvFAfYp4AePDCk2riCzN-105" value="" style="edgeStyle=orthogonalEdgeStyle;rounded=0;orthogonalLoop=1;jettySize=auto;html=1;labelBackgroundColor=default;fontSize=17;fontColor=default;strokeColor=default;strokeWidth=2;fillColor=default;" parent="1" source="xvFAfYp4AePDCk2riCzN-70" edge="1">
          <mxGeometry relative="1" as="geometry">
            <mxPoint x="-15" y="524" as="targetPoint" />
          </mxGeometry>
        </mxCell>
        <mxCell id="xvFAfYp4AePDCk2riCzN-70" value="&lt;font style=&quot;font-size: 17px&quot;&gt;X[ i ][ j ]&amp;nbsp;≤ 0&amp;nbsp;&lt;/font&gt;" style="rhombus;whiteSpace=wrap;html=1;fontSize=19;fontColor=default;strokeColor=default;fillColor=default;" parent="1" vertex="1">
          <mxGeometry x="34.139999999999986" y="589" width="165.86" height="70" as="geometry" />
        </mxCell>
        <mxCell id="xvFAfYp4AePDCk2riCzN-76" value="" style="endArrow=none;html=1;rounded=0;labelBackgroundColor=default;fontSize=17;fontColor=default;strokeColor=default;strokeWidth=2;fillColor=default;" parent="1" edge="1">
          <mxGeometry width="50" height="50" relative="1" as="geometry">
            <mxPoint x="117" y="539" as="sourcePoint" />
            <mxPoint x="117" y="519" as="targetPoint" />
          </mxGeometry>
        </mxCell>
        <mxCell id="xvFAfYp4AePDCk2riCzN-79" value="" style="endArrow=none;html=1;rounded=0;labelBackgroundColor=default;fontSize=17;fontColor=default;strokeColor=default;strokeWidth=2;fillColor=default;" parent="1" edge="1">
          <mxGeometry width="50" height="50" relative="1" as="geometry">
            <mxPoint x="117" y="589" as="sourcePoint" />
            <mxPoint x="117" y="569" as="targetPoint" />
          </mxGeometry>
        </mxCell>
        <mxCell id="xvFAfYp4AePDCk2riCzN-106" value="" style="endArrow=classic;html=1;rounded=0;labelBackgroundColor=default;fontSize=17;fontColor=default;strokeColor=default;strokeWidth=2;fillColor=default;" parent="1" edge="1">
          <mxGeometry width="50" height="50" relative="1" as="geometry">
            <mxPoint x="-13.75" y="529" as="sourcePoint" />
            <mxPoint x="120" y="529" as="targetPoint" />
          </mxGeometry>
        </mxCell>
        <mxCell id="xvFAfYp4AePDCk2riCzN-108" value="" style="endArrow=none;html=1;rounded=0;labelBackgroundColor=default;fontSize=17;fontColor=default;strokeColor=default;strokeWidth=2;fillColor=default;" parent="1" edge="1">
          <mxGeometry width="50" height="50" relative="1" as="geometry">
            <mxPoint x="117" y="679" as="sourcePoint" />
            <mxPoint x="117" y="659" as="targetPoint" />
          </mxGeometry>
        </mxCell>
        <mxCell id="xvFAfYp4AePDCk2riCzN-113" value="" style="endArrow=none;html=1;rounded=0;labelBackgroundColor=default;fontSize=16;fontColor=default;strokeColor=default;strokeWidth=2;fillColor=default;" parent="1" edge="1">
          <mxGeometry width="50" height="50" relative="1" as="geometry">
            <mxPoint x="-40" y="679" as="sourcePoint" />
            <mxPoint x="117.30000000000001" y="679" as="targetPoint" />
          </mxGeometry>
        </mxCell>
        <mxCell id="xvFAfYp4AePDCk2riCzN-127" value="" style="endArrow=classic;html=1;rounded=0;labelBackgroundColor=default;fontSize=16;fontColor=default;strokeColor=default;strokeWidth=2;fillColor=default;" parent="1" edge="1">
          <mxGeometry width="50" height="50" relative="1" as="geometry">
            <mxPoint x="-40" y="504" as="sourcePoint" />
            <mxPoint x="20" y="504" as="targetPoint" />
          </mxGeometry>
        </mxCell>
        <mxCell id="xvFAfYp4AePDCk2riCzN-128" value="" style="endArrow=none;html=1;rounded=0;labelBackgroundColor=default;fontSize=16;fontColor=default;strokeColor=default;strokeWidth=2;fillColor=default;startArrow=none;" parent="1" edge="1">
          <mxGeometry width="50" height="50" relative="1" as="geometry">
            <mxPoint x="-40" y="504" as="sourcePoint" />
            <mxPoint x="-40" y="509" as="targetPoint" />
          </mxGeometry>
        </mxCell>
        <mxCell id="xvFAfYp4AePDCk2riCzN-130" value="" style="endArrow=none;html=1;rounded=0;labelBackgroundColor=default;fontSize=16;fontColor=default;strokeColor=default;strokeWidth=2;fillColor=default;" parent="1" edge="1">
          <mxGeometry width="50" height="50" relative="1" as="geometry">
            <mxPoint x="-40" y="679" as="sourcePoint" />
            <mxPoint x="-40" y="504" as="targetPoint" />
          </mxGeometry>
        </mxCell>
        <mxCell id="xvFAfYp4AePDCk2riCzN-132" value="" style="endArrow=none;html=1;rounded=0;labelBackgroundColor=default;fontSize=16;fontColor=default;strokeColor=default;strokeWidth=2;fillColor=default;" parent="1" edge="1">
          <mxGeometry width="50" height="50" relative="1" as="geometry">
            <mxPoint x="218.31999999999994" y="503.5" as="sourcePoint" />
            <mxPoint x="240" y="504" as="targetPoint" />
          </mxGeometry>
        </mxCell>
        <mxCell id="xvFAfYp4AePDCk2riCzN-133" value="" style="endArrow=none;html=1;rounded=0;labelBackgroundColor=default;fontSize=16;fontColor=default;strokeColor=default;strokeWidth=2;fillColor=default;" parent="1" edge="1">
          <mxGeometry width="50" height="50" relative="1" as="geometry">
            <mxPoint x="239" y="699" as="sourcePoint" />
            <mxPoint x="238.75" y="504" as="targetPoint" />
          </mxGeometry>
        </mxCell>
        <mxCell id="xvFAfYp4AePDCk2riCzN-136" value="" style="endArrow=none;html=1;rounded=0;labelBackgroundColor=default;fontSize=16;fontColor=default;strokeColor=default;strokeWidth=2;fillColor=default;startArrow=none;" parent="1" edge="1">
          <mxGeometry width="50" height="50" relative="1" as="geometry">
            <mxPoint x="238.31999999999994" y="699" as="sourcePoint" />
            <mxPoint x="237.5" y="699" as="targetPoint" />
          </mxGeometry>
        </mxCell>
        <mxCell id="xvFAfYp4AePDCk2riCzN-139" value="" style="endArrow=none;html=1;rounded=0;labelBackgroundColor=default;fontSize=16;fontColor=default;strokeColor=default;strokeWidth=2;fillColor=default;" parent="1" edge="1">
          <mxGeometry width="50" height="50" relative="1" as="geometry">
            <mxPoint x="-60" y="699" as="sourcePoint" />
            <mxPoint x="238.31999999999994" y="699" as="targetPoint" />
          </mxGeometry>
        </mxCell>
        <mxCell id="xvFAfYp4AePDCk2riCzN-140" value="" style="endArrow=none;html=1;rounded=0;labelBackgroundColor=default;fontSize=16;fontColor=default;strokeColor=default;strokeWidth=2;fillColor=default;entryX=0.475;entryY=0.45;entryDx=0;entryDy=0;entryPerimeter=0;" parent="1" edge="1">
          <mxGeometry width="50" height="50" relative="1" as="geometry">
            <mxPoint x="-60" y="699" as="sourcePoint" />
            <mxPoint x="-60" y="454" as="targetPoint" />
          </mxGeometry>
        </mxCell>
        <mxCell id="xvFAfYp4AePDCk2riCzN-141" value="" style="endArrow=classic;html=1;rounded=0;labelBackgroundColor=default;fontSize=16;fontColor=default;strokeColor=default;strokeWidth=2;fillColor=default;startArrow=none;" parent="1" edge="1">
          <mxGeometry width="50" height="50" relative="1" as="geometry">
            <mxPoint x="-60" y="454" as="sourcePoint" />
            <mxPoint x="20" y="453.5" as="targetPoint" />
          </mxGeometry>
        </mxCell>
        <mxCell id="xvFAfYp4AePDCk2riCzN-143" value="" style="endArrow=none;html=1;rounded=0;labelBackgroundColor=default;fontSize=16;fontColor=default;strokeColor=default;strokeWidth=2;fillColor=default;" parent="1" edge="1">
          <mxGeometry width="50" height="50" relative="1" as="geometry">
            <mxPoint x="-60" y="453.5" as="sourcePoint" />
            <mxPoint x="-60" y="454" as="targetPoint" />
          </mxGeometry>
        </mxCell>
        <mxCell id="xvFAfYp4AePDCk2riCzN-144" value="" style="endArrow=none;html=1;rounded=0;labelBackgroundColor=default;fontSize=16;fontColor=default;strokeColor=default;strokeWidth=2;fillColor=default;startArrow=none;" parent="1" edge="1">
          <mxGeometry width="50" height="50" relative="1" as="geometry">
            <mxPoint x="260" y="445" as="sourcePoint" />
            <mxPoint x="260" y="445" as="targetPoint" />
          </mxGeometry>
        </mxCell>
        <mxCell id="xvFAfYp4AePDCk2riCzN-210" value="&lt;font style=&quot;font-size: 16px&quot;&gt;int max = X[0][0]&amp;nbsp;&lt;/font&gt;" style="rounded=0;whiteSpace=wrap;html=1;fontSize=17;fontColor=default;strokeColor=default;fillColor=default;" parent="1" vertex="1">
          <mxGeometry x="485.62" y="140" width="143.75" height="40" as="geometry" />
        </mxCell>
        <mxCell id="xvFAfYp4AePDCk2riCzN-211" value="&lt;font style=&quot;font-size: 18px&quot;&gt;i = 0; i &amp;lt; row; i++&lt;/font&gt;" style="shape=hexagon;perimeter=hexagonPerimeter2;whiteSpace=wrap;html=1;fixedSize=1;fontSize=22;fontColor=default;strokeColor=default;fillColor=default;" parent="1" vertex="1">
          <mxGeometry x="455.81999999999994" y="200" width="202.5" height="30" as="geometry" />
        </mxCell>
        <mxCell id="xvFAfYp4AePDCk2riCzN-212" value="&lt;font style=&quot;font-size: 18px&quot;&gt;j = 0; j &amp;lt; col; j++&lt;/font&gt;" style="shape=hexagon;perimeter=hexagonPerimeter2;whiteSpace=wrap;html=1;fixedSize=1;fontSize=22;fontColor=default;strokeColor=default;fillColor=default;" parent="1" vertex="1">
          <mxGeometry x="455.81999999999994" y="250" width="202.5" height="30" as="geometry" />
        </mxCell>
        <mxCell id="xvFAfYp4AePDCk2riCzN-213" value="" style="endArrow=none;html=1;rounded=0;labelBackgroundColor=default;fontSize=16;fontColor=default;strokeColor=default;strokeWidth=2;fillColor=default;" parent="1" edge="1">
          <mxGeometry width="50" height="50" relative="1" as="geometry">
            <mxPoint x="557" y="200" as="sourcePoint" />
            <mxPoint x="556.5699999999999" y="180" as="targetPoint" />
          </mxGeometry>
        </mxCell>
        <mxCell id="xvFAfYp4AePDCk2riCzN-214" value="" style="endArrow=none;html=1;rounded=0;labelBackgroundColor=default;fontSize=16;fontColor=default;strokeColor=default;strokeWidth=2;fillColor=default;startArrow=none;" parent="1" edge="1">
          <mxGeometry width="50" height="50" relative="1" as="geometry">
            <mxPoint x="557.0699999999999" y="110" as="sourcePoint" />
            <mxPoint x="557" y="110" as="targetPoint" />
          </mxGeometry>
        </mxCell>
        <mxCell id="xvFAfYp4AePDCk2riCzN-215" value="" style="endArrow=none;html=1;rounded=0;labelBackgroundColor=default;fontSize=16;fontColor=default;strokeColor=default;strokeWidth=2;fillColor=default;" parent="1" edge="1">
          <mxGeometry width="50" height="50" relative="1" as="geometry">
            <mxPoint x="557" y="140" as="sourcePoint" />
            <mxPoint x="557.0699999999999" y="110" as="targetPoint" />
          </mxGeometry>
        </mxCell>
        <mxCell id="xvFAfYp4AePDCk2riCzN-216" value="" style="endArrow=none;html=1;rounded=0;labelBackgroundColor=default;fontSize=16;fontColor=default;strokeColor=default;strokeWidth=2;fillColor=default;" parent="1" edge="1">
          <mxGeometry width="50" height="50" relative="1" as="geometry">
            <mxPoint x="557" y="250" as="sourcePoint" />
            <mxPoint x="556.5699999999999" y="230" as="targetPoint" />
          </mxGeometry>
        </mxCell>
        <mxCell id="xvFAfYp4AePDCk2riCzN-217" value="&lt;font style=&quot;font-size: 17px&quot;&gt;X[ i ][ j ] &amp;gt; max&amp;nbsp;&lt;/font&gt;" style="rhombus;whiteSpace=wrap;html=1;fontSize=19;fontColor=default;strokeColor=default;fillColor=default;" parent="1" vertex="1">
          <mxGeometry x="474.14" y="300" width="165.86" height="70" as="geometry" />
        </mxCell>
        <mxCell id="xvFAfYp4AePDCk2riCzN-220" value="&lt;span style=&quot;font-size: 16px&quot;&gt;X[ i ][ j ] = max&lt;/span&gt;" style="rounded=0;whiteSpace=wrap;html=1;fontSize=17;fontColor=default;strokeColor=default;fillColor=default;" parent="1" vertex="1">
          <mxGeometry x="485.62" y="400" width="143.75" height="40" as="geometry" />
        </mxCell>
        <mxCell id="xvFAfYp4AePDCk2riCzN-221" value="" style="endArrow=none;html=1;rounded=0;labelBackgroundColor=default;fontSize=16;fontColor=default;strokeColor=default;strokeWidth=2;fillColor=default;" parent="1" edge="1">
          <mxGeometry width="50" height="50" relative="1" as="geometry">
            <mxPoint x="557" y="400" as="sourcePoint" />
            <mxPoint x="557" y="370" as="targetPoint" />
          </mxGeometry>
        </mxCell>
        <mxCell id="xvFAfYp4AePDCk2riCzN-222" value="" style="line;strokeWidth=2;html=1;fontSize=16;fontColor=default;fillColor=default;strokeColor=default;" parent="1" vertex="1">
          <mxGeometry x="638.36" y="330" width="21.64" height="10" as="geometry" />
        </mxCell>
        <mxCell id="xvFAfYp4AePDCk2riCzN-223" value="" style="endArrow=none;html=1;rounded=0;labelBackgroundColor=default;fontSize=16;fontColor=default;strokeColor=default;strokeWidth=2;fillColor=default;" parent="1" edge="1">
          <mxGeometry width="50" height="50" relative="1" as="geometry">
            <mxPoint x="400" y="460" as="sourcePoint" />
            <mxPoint x="660" y="460" as="targetPoint" />
          </mxGeometry>
        </mxCell>
        <mxCell id="xvFAfYp4AePDCk2riCzN-224" value="" style="endArrow=none;html=1;rounded=0;labelBackgroundColor=default;fontSize=16;fontColor=default;strokeColor=default;strokeWidth=2;fillColor=default;entryX=0.475;entryY=0.425;entryDx=0;entryDy=0;entryPerimeter=0;" parent="1" edge="1">
          <mxGeometry width="50" height="50" relative="1" as="geometry">
            <mxPoint x="400" y="460" as="sourcePoint" />
            <mxPoint x="400" y="265" as="targetPoint" />
          </mxGeometry>
        </mxCell>
        <mxCell id="xvFAfYp4AePDCk2riCzN-225" value="" style="endArrow=none;html=1;rounded=0;labelBackgroundColor=default;fontSize=16;fontColor=default;strokeColor=default;strokeWidth=2;fillColor=default;" parent="1" edge="1">
          <mxGeometry width="50" height="50" relative="1" as="geometry">
            <mxPoint x="557" y="300" as="sourcePoint" />
            <mxPoint x="557" y="280" as="targetPoint" />
          </mxGeometry>
        </mxCell>
        <mxCell id="xvFAfYp4AePDCk2riCzN-226" value="" style="endArrow=none;html=1;rounded=0;labelBackgroundColor=default;fontSize=16;fontColor=default;strokeColor=default;strokeWidth=2;fillColor=default;" parent="1" edge="1">
          <mxGeometry width="50" height="50" relative="1" as="geometry">
            <mxPoint x="557" y="460" as="sourcePoint" />
            <mxPoint x="556.5699999999999" y="440" as="targetPoint" />
          </mxGeometry>
        </mxCell>
        <mxCell id="xvFAfYp4AePDCk2riCzN-227" value="" style="endArrow=classic;html=1;rounded=0;labelBackgroundColor=default;fontSize=16;fontColor=default;strokeColor=default;strokeWidth=2;fillColor=default;startArrow=none;" parent="1" edge="1">
          <mxGeometry width="50" height="50" relative="1" as="geometry">
            <mxPoint x="400" y="265" as="sourcePoint" />
            <mxPoint x="460" y="264.5" as="targetPoint" />
          </mxGeometry>
        </mxCell>
        <mxCell id="xvFAfYp4AePDCk2riCzN-228" value="" style="endArrow=none;html=1;rounded=0;labelBackgroundColor=default;fontSize=16;fontColor=default;strokeColor=default;strokeWidth=2;fillColor=default;" parent="1" edge="1">
          <mxGeometry width="50" height="50" relative="1" as="geometry">
            <mxPoint x="400" y="265" as="sourcePoint" />
            <mxPoint x="400" y="265" as="targetPoint" />
          </mxGeometry>
        </mxCell>
        <mxCell id="xvFAfYp4AePDCk2riCzN-229" value="" style="line;strokeWidth=2;html=1;fontSize=16;fontColor=default;fillColor=default;strokeColor=default;" parent="1" vertex="1">
          <mxGeometry x="658.3199999999999" y="260" width="21.68" height="10" as="geometry" />
        </mxCell>
        <mxCell id="xvFAfYp4AePDCk2riCzN-230" value="" style="endArrow=none;html=1;rounded=0;labelBackgroundColor=default;fontSize=16;fontColor=default;strokeColor=default;strokeWidth=2;fillColor=default;" parent="1" edge="1">
          <mxGeometry width="50" height="50" relative="1" as="geometry">
            <mxPoint x="680" y="380" as="sourcePoint" />
            <mxPoint x="680" y="265" as="targetPoint" />
          </mxGeometry>
        </mxCell>
        <mxCell id="xvFAfYp4AePDCk2riCzN-231" value="" style="endArrow=none;html=1;rounded=0;labelBackgroundColor=default;fontSize=16;fontColor=default;strokeColor=default;strokeWidth=2;fillColor=default;" parent="1" edge="1">
          <mxGeometry width="50" height="50" relative="1" as="geometry">
            <mxPoint x="660" y="460" as="sourcePoint" />
            <mxPoint x="660" y="335" as="targetPoint" />
          </mxGeometry>
        </mxCell>
        <mxCell id="xvFAfYp4AePDCk2riCzN-232" value="" style="endArrow=none;html=1;rounded=0;labelBackgroundColor=default;fontSize=16;fontColor=default;strokeColor=default;strokeWidth=2;fillColor=default;" parent="1" edge="1">
          <mxGeometry width="50" height="50" relative="1" as="geometry">
            <mxPoint x="680" y="480" as="sourcePoint" />
            <mxPoint x="680" y="375" as="targetPoint" />
          </mxGeometry>
        </mxCell>
        <mxCell id="xvFAfYp4AePDCk2riCzN-233" value="" style="endArrow=none;html=1;rounded=0;labelBackgroundColor=default;fontSize=16;fontColor=default;strokeColor=default;strokeWidth=2;fillColor=default;" parent="1" edge="1">
          <mxGeometry width="50" height="50" relative="1" as="geometry">
            <mxPoint x="380" y="480" as="sourcePoint" />
            <mxPoint x="680" y="480" as="targetPoint" />
          </mxGeometry>
        </mxCell>
        <mxCell id="xvFAfYp4AePDCk2riCzN-234" value="" style="endArrow=none;html=1;rounded=0;labelBackgroundColor=default;fontSize=16;fontColor=default;strokeColor=default;strokeWidth=2;fillColor=default;entryX=0.475;entryY=0.4;entryDx=0;entryDy=0;entryPerimeter=0;" parent="1" edge="1">
          <mxGeometry width="50" height="50" relative="1" as="geometry">
            <mxPoint x="380" y="480" as="sourcePoint" />
            <mxPoint x="380" y="215" as="targetPoint" />
          </mxGeometry>
        </mxCell>
        <mxCell id="xvFAfYp4AePDCk2riCzN-235" value="" style="endArrow=classic;html=1;rounded=0;labelBackgroundColor=default;fontSize=16;fontColor=default;strokeColor=default;strokeWidth=2;fillColor=default;" parent="1" edge="1">
          <mxGeometry width="50" height="50" relative="1" as="geometry">
            <mxPoint x="380" y="215" as="sourcePoint" />
            <mxPoint x="460" y="214.5" as="targetPoint" />
          </mxGeometry>
        </mxCell>
        <mxCell id="xvFAfYp4AePDCk2riCzN-236" value="" style="line;strokeWidth=2;html=1;fontSize=16;fontColor=default;fillColor=default;strokeColor=default;" parent="1" vertex="1">
          <mxGeometry x="658.3199999999999" y="210" width="41.68" height="10" as="geometry" />
        </mxCell>
        <mxCell id="xvFAfYp4AePDCk2riCzN-237" value="" style="endArrow=none;html=1;rounded=0;labelBackgroundColor=default;fontSize=16;fontColor=default;strokeColor=default;strokeWidth=2;fillColor=default;" parent="1" edge="1">
          <mxGeometry width="50" height="50" relative="1" as="geometry">
            <mxPoint x="700" y="500" as="sourcePoint" />
            <mxPoint x="700" y="215" as="targetPoint" />
          </mxGeometry>
        </mxCell>
        <mxCell id="xvFAfYp4AePDCk2riCzN-238" value="" style="endArrow=none;html=1;rounded=0;labelBackgroundColor=default;fontSize=16;fontColor=default;strokeColor=default;strokeWidth=2;fillColor=default;exitX=0.598;exitY=0.55;exitDx=0;exitDy=0;exitPerimeter=0;" parent="1" edge="1">
          <mxGeometry width="50" height="50" relative="1" as="geometry">
            <mxPoint x="557.0699999999999" y="500" as="sourcePoint" />
            <mxPoint x="700" y="500" as="targetPoint" />
          </mxGeometry>
        </mxCell>
        <mxCell id="xvFAfYp4AePDCk2riCzN-239" value="" style="endArrow=none;html=1;rounded=0;labelBackgroundColor=default;fontSize=16;fontColor=default;strokeColor=default;strokeWidth=2;fillColor=default;" parent="1" edge="1">
          <mxGeometry width="50" height="50" relative="1" as="geometry">
            <mxPoint x="557" y="520" as="sourcePoint" />
            <mxPoint x="556.5699999999999" y="500" as="targetPoint" />
          </mxGeometry>
        </mxCell>
        <mxCell id="eRF2-isajBVZDZ59fyhC-3" value="&lt;font style=&quot;font-size: 15px&quot;&gt;counter = 0&lt;br&gt;rowindex = 0&lt;br&gt;colindex = 0&lt;/font&gt;" style="rounded=0;whiteSpace=wrap;html=1;fontColor=default;strokeColor=default;fillColor=default;" vertex="1" parent="1">
          <mxGeometry x="497.06999999999994" y="510" width="120" height="60" as="geometry" />
        </mxCell>
        <mxCell id="eRF2-isajBVZDZ59fyhC-4" value="&lt;font style=&quot;font-size: 18px&quot;&gt;i = 0; i &amp;lt; row; i++&lt;/font&gt;" style="shape=hexagon;perimeter=hexagonPerimeter2;whiteSpace=wrap;html=1;fixedSize=1;fontSize=22;fontColor=default;strokeColor=default;fillColor=default;" vertex="1" parent="1">
          <mxGeometry x="455.81999999999994" y="590" width="202.5" height="30" as="geometry" />
        </mxCell>
        <mxCell id="eRF2-isajBVZDZ59fyhC-5" value="&lt;font style=&quot;font-size: 18px&quot;&gt;j = 0; j &amp;lt; col; j++&lt;/font&gt;" style="shape=hexagon;perimeter=hexagonPerimeter2;whiteSpace=wrap;html=1;fixedSize=1;fontSize=22;fontColor=default;strokeColor=default;fillColor=default;" vertex="1" parent="1">
          <mxGeometry x="455.81999999999994" y="640" width="202.5" height="30" as="geometry" />
        </mxCell>
        <mxCell id="eRF2-isajBVZDZ59fyhC-6" value="" style="endArrow=none;html=1;rounded=0;fontSize=15;fontColor=default;strokeColor=default;fillColor=default;labelBackgroundColor=default;endSize=6;strokeWidth=2;" edge="1" parent="1">
          <mxGeometry width="50" height="50" relative="1" as="geometry">
            <mxPoint x="557" y="590" as="sourcePoint" />
            <mxPoint x="557" y="570" as="targetPoint" />
          </mxGeometry>
        </mxCell>
        <mxCell id="eRF2-isajBVZDZ59fyhC-7" value="" style="endArrow=none;html=1;rounded=0;labelBackgroundColor=default;fontSize=15;fontColor=default;endSize=6;strokeColor=default;strokeWidth=2;fillColor=default;" edge="1" parent="1">
          <mxGeometry width="50" height="50" relative="1" as="geometry">
            <mxPoint x="557" y="640" as="sourcePoint" />
            <mxPoint x="557" y="620" as="targetPoint" />
          </mxGeometry>
        </mxCell>
        <mxCell id="eRF2-isajBVZDZ59fyhC-8" value="&lt;font style=&quot;font-size: 17px&quot;&gt;X[ i ][ j ] = max&amp;nbsp;&lt;/font&gt;" style="rhombus;whiteSpace=wrap;html=1;fontSize=19;fontColor=default;strokeColor=default;fillColor=default;" vertex="1" parent="1">
          <mxGeometry x="474.56999999999994" y="690" width="165.86" height="70" as="geometry" />
        </mxCell>
        <mxCell id="eRF2-isajBVZDZ59fyhC-9" value="" style="endArrow=none;html=1;rounded=0;labelBackgroundColor=default;fontSize=15;fontColor=default;endSize=6;strokeColor=default;strokeWidth=2;fillColor=default;" edge="1" parent="1">
          <mxGeometry width="50" height="50" relative="1" as="geometry">
            <mxPoint x="557" y="690" as="sourcePoint" />
            <mxPoint x="557" y="670" as="targetPoint" />
          </mxGeometry>
        </mxCell>
        <mxCell id="eRF2-isajBVZDZ59fyhC-12" value="" style="endArrow=none;html=1;rounded=0;labelBackgroundColor=default;fontSize=15;fontColor=default;endSize=6;strokeColor=default;strokeWidth=2;fillColor=default;" edge="1" parent="1">
          <mxGeometry width="50" height="50" relative="1" as="geometry">
            <mxPoint x="557" y="790" as="sourcePoint" />
            <mxPoint x="556.5699999999999" y="760" as="targetPoint" />
          </mxGeometry>
        </mxCell>
        <mxCell id="eRF2-isajBVZDZ59fyhC-14" value="&lt;font style=&quot;font-size: 15px&quot;&gt;counter ++&lt;br&gt;rowindex = i&lt;br&gt;colindex = j&lt;/font&gt;" style="rounded=0;whiteSpace=wrap;html=1;fontColor=default;strokeColor=default;fillColor=default;" vertex="1" parent="1">
          <mxGeometry x="497.06999999999994" y="790" width="120" height="60" as="geometry" />
        </mxCell>
        <mxCell id="eRF2-isajBVZDZ59fyhC-16" value="" style="line;strokeWidth=2;html=1;fontSize=15;fontColor=default;fillColor=default;strokeColor=default;labelBackgroundColor=default;" vertex="1" parent="1">
          <mxGeometry x="640.4300000000001" y="720" width="19.57" height="10" as="geometry" />
        </mxCell>
        <mxCell id="eRF2-isajBVZDZ59fyhC-19" value="" style="endArrow=none;html=1;rounded=0;labelBackgroundColor=default;fontSize=15;fontColor=default;endSize=6;strokeColor=default;strokeWidth=2;fillColor=default;entryX=0.514;entryY=0.625;entryDx=0;entryDy=0;entryPerimeter=0;" edge="1" parent="1">
          <mxGeometry width="50" height="50" relative="1" as="geometry">
            <mxPoint x="660" y="870" as="sourcePoint" />
            <mxPoint x="660.4300000000001" y="725" as="targetPoint" />
          </mxGeometry>
        </mxCell>
        <mxCell id="eRF2-isajBVZDZ59fyhC-20" value="" style="endArrow=none;html=1;rounded=0;labelBackgroundColor=default;fontSize=15;fontColor=default;endSize=6;strokeColor=default;strokeWidth=2;fillColor=default;" edge="1" parent="1">
          <mxGeometry width="50" height="50" relative="1" as="geometry">
            <mxPoint x="400" y="870" as="sourcePoint" />
            <mxPoint x="658.75" y="870" as="targetPoint" />
          </mxGeometry>
        </mxCell>
        <mxCell id="eRF2-isajBVZDZ59fyhC-26" value="" style="endArrow=none;html=1;rounded=0;labelBackgroundColor=default;fontSize=15;fontColor=default;endSize=6;strokeColor=default;strokeWidth=2;fillColor=default;" edge="1" parent="1">
          <mxGeometry width="50" height="50" relative="1" as="geometry">
            <mxPoint x="557" y="870" as="sourcePoint" />
            <mxPoint x="556.5699999999999" y="850" as="targetPoint" />
          </mxGeometry>
        </mxCell>
        <mxCell id="eRF2-isajBVZDZ59fyhC-27" value="" style="endArrow=none;html=1;rounded=0;labelBackgroundColor=default;fontSize=15;fontColor=default;endSize=6;strokeColor=default;strokeWidth=2;fillColor=default;entryX=0.475;entryY=0.4;entryDx=0;entryDy=0;entryPerimeter=0;" edge="1" parent="1">
          <mxGeometry width="50" height="50" relative="1" as="geometry">
            <mxPoint x="400" y="870" as="sourcePoint" />
            <mxPoint x="400" y="655" as="targetPoint" />
          </mxGeometry>
        </mxCell>
        <mxCell id="eRF2-isajBVZDZ59fyhC-28" value="" style="endArrow=classic;html=1;rounded=0;labelBackgroundColor=default;fontSize=15;fontColor=default;endSize=6;strokeColor=default;strokeWidth=2;fillColor=default;startArrow=none;" edge="1" parent="1">
          <mxGeometry width="50" height="50" relative="1" as="geometry">
            <mxPoint x="400" y="655" as="sourcePoint" />
            <mxPoint x="460" y="654.5" as="targetPoint" />
          </mxGeometry>
        </mxCell>
        <mxCell id="eRF2-isajBVZDZ59fyhC-30" value="" style="endArrow=none;html=1;rounded=0;labelBackgroundColor=default;fontSize=15;fontColor=default;endSize=6;strokeColor=default;strokeWidth=2;fillColor=default;" edge="1" parent="1">
          <mxGeometry width="50" height="50" relative="1" as="geometry">
            <mxPoint x="400" y="655" as="sourcePoint" />
            <mxPoint x="400" y="655" as="targetPoint" />
          </mxGeometry>
        </mxCell>
        <mxCell id="eRF2-isajBVZDZ59fyhC-31" value="" style="line;strokeWidth=2;html=1;labelBackgroundColor=default;fontSize=15;fontColor=default;fillColor=default;strokeColor=default;" vertex="1" parent="1">
          <mxGeometry x="658.75" y="650" width="21.25" height="10" as="geometry" />
        </mxCell>
        <mxCell id="eRF2-isajBVZDZ59fyhC-34" value="" style="endArrow=none;html=1;rounded=0;labelBackgroundColor=default;fontSize=15;fontColor=default;endSize=6;strokeColor=default;strokeWidth=2;fillColor=default;entryX=0.542;entryY=0.45;entryDx=0;entryDy=0;entryPerimeter=0;" edge="1" parent="1">
          <mxGeometry width="50" height="50" relative="1" as="geometry">
            <mxPoint x="678" y="890" as="sourcePoint" />
            <mxPoint x="678.3199999999999" y="655" as="targetPoint" />
          </mxGeometry>
        </mxCell>
        <mxCell id="eRF2-isajBVZDZ59fyhC-35" value="" style="endArrow=none;html=1;rounded=0;labelBackgroundColor=default;fontSize=15;fontColor=default;endSize=6;strokeColor=default;strokeWidth=2;fillColor=default;" edge="1" parent="1">
          <mxGeometry width="50" height="50" relative="1" as="geometry">
            <mxPoint x="380" y="890" as="sourcePoint" />
            <mxPoint x="678.3200000000002" y="890" as="targetPoint" />
          </mxGeometry>
        </mxCell>
        <mxCell id="eRF2-isajBVZDZ59fyhC-37" value="" style="endArrow=none;html=1;rounded=0;labelBackgroundColor=default;fontSize=15;fontColor=default;endSize=6;strokeColor=default;strokeWidth=2;fillColor=default;entryX=0.5;entryY=0.375;entryDx=0;entryDy=0;entryPerimeter=0;" edge="1" parent="1">
          <mxGeometry width="50" height="50" relative="1" as="geometry">
            <mxPoint x="380" y="890" as="sourcePoint" />
            <mxPoint x="380" y="605" as="targetPoint" />
          </mxGeometry>
        </mxCell>
        <mxCell id="eRF2-isajBVZDZ59fyhC-38" value="" style="endArrow=classic;html=1;rounded=0;labelBackgroundColor=default;fontSize=15;fontColor=default;endSize=6;strokeColor=default;strokeWidth=2;fillColor=default;" edge="1" parent="1">
          <mxGeometry width="50" height="50" relative="1" as="geometry">
            <mxPoint x="380" y="604.5" as="sourcePoint" />
            <mxPoint x="460" y="604.5" as="targetPoint" />
          </mxGeometry>
        </mxCell>
        <mxCell id="eRF2-isajBVZDZ59fyhC-40" value="" style="line;strokeWidth=2;html=1;labelBackgroundColor=default;fontSize=15;fontColor=default;fillColor=default;strokeColor=default;" vertex="1" parent="1">
          <mxGeometry x="658.32" y="600" width="41.68" height="10" as="geometry" />
        </mxCell>
        <mxCell id="eRF2-isajBVZDZ59fyhC-41" value="" style="endArrow=none;html=1;rounded=0;labelBackgroundColor=default;fontSize=15;fontColor=default;endSize=6;strokeColor=default;strokeWidth=2;fillColor=default;" edge="1" parent="1">
          <mxGeometry width="50" height="50" relative="1" as="geometry">
            <mxPoint x="700" y="910" as="sourcePoint" />
            <mxPoint x="700" y="605" as="targetPoint" />
          </mxGeometry>
        </mxCell>
        <mxCell id="eRF2-isajBVZDZ59fyhC-44" value="" style="endArrow=none;html=1;rounded=0;labelBackgroundColor=default;fontSize=15;fontColor=default;endSize=6;strokeColor=default;strokeWidth=2;fillColor=default;" edge="1" parent="1">
          <mxGeometry width="50" height="50" relative="1" as="geometry">
            <mxPoint x="557.0699999999999" y="910" as="sourcePoint" />
            <mxPoint x="700" y="910" as="targetPoint" />
          </mxGeometry>
        </mxCell>
        <mxCell id="eRF2-isajBVZDZ59fyhC-45" value="" style="endArrow=none;html=1;rounded=0;labelBackgroundColor=default;fontSize=15;fontColor=default;endSize=6;strokeColor=default;strokeWidth=2;fillColor=default;startArrow=none;" edge="1" parent="1">
          <mxGeometry width="50" height="50" relative="1" as="geometry">
            <mxPoint x="557.0699999999999" y="910" as="sourcePoint" />
            <mxPoint x="557.0699999999999" y="910" as="targetPoint" />
          </mxGeometry>
        </mxCell>
        <mxCell id="eRF2-isajBVZDZ59fyhC-47" value="" style="endArrow=none;html=1;rounded=0;labelBackgroundColor=default;fontSize=15;fontColor=default;endSize=6;strokeColor=default;strokeWidth=2;fillColor=default;" edge="1" parent="1">
          <mxGeometry width="50" height="50" relative="1" as="geometry">
            <mxPoint x="557" y="940" as="sourcePoint" />
            <mxPoint x="557.0699999999999" y="910" as="targetPoint" />
          </mxGeometry>
        </mxCell>
        <mxCell id="eRF2-isajBVZDZ59fyhC-48" value="&lt;font style=&quot;font-size: 17px&quot;&gt;counter != 1&lt;/font&gt;" style="rhombus;whiteSpace=wrap;html=1;fontSize=19;fontColor=default;strokeColor=default;fillColor=default;" vertex="1" parent="1">
          <mxGeometry x="474.14" y="930" width="165.86" height="70" as="geometry" />
        </mxCell>
        <mxCell id="eRF2-isajBVZDZ59fyhC-50" value="" style="endArrow=none;html=1;rounded=0;labelBackgroundColor=default;fontSize=15;fontColor=default;endSize=6;strokeColor=default;strokeWidth=2;fillColor=default;exitX=0.5;exitY=0.425;exitDx=0;exitDy=0;exitPerimeter=0;" edge="1" parent="1">
          <mxGeometry width="50" height="50" relative="1" as="geometry">
            <mxPoint x="260" y="454" as="sourcePoint" />
            <mxPoint x="260" y="110" as="targetPoint" />
          </mxGeometry>
        </mxCell>
        <mxCell id="eRF2-isajBVZDZ59fyhC-51" value="" style="endArrow=none;html=1;rounded=0;labelBackgroundColor=default;fontSize=15;fontColor=default;endSize=6;strokeColor=default;strokeWidth=2;fillColor=default;entryX=0.5;entryY=1;entryDx=0;entryDy=0;" edge="1" parent="1">
          <mxGeometry width="50" height="50" relative="1" as="geometry">
            <mxPoint x="260" y="110" as="sourcePoint" />
            <mxPoint x="555" y="110" as="targetPoint" />
          </mxGeometry>
        </mxCell>
        <mxCell id="eRF2-isajBVZDZ59fyhC-52" value="" style="line;strokeWidth=2;html=1;labelBackgroundColor=default;fontSize=15;fontColor=default;fillColor=default;strokeColor=default;" vertex="1" parent="1">
          <mxGeometry x="-80" y="960" width="554.57" height="10" as="geometry" />
        </mxCell>
        <mxCell id="eRF2-isajBVZDZ59fyhC-55" value="" style="endArrow=none;html=1;rounded=0;labelBackgroundColor=default;fontSize=15;fontColor=default;endSize=6;strokeColor=default;strokeWidth=2;fillColor=default;exitX=0.425;exitY=0.425;exitDx=0;exitDy=0;exitPerimeter=0;" edge="1" parent="1">
          <mxGeometry width="50" height="50" relative="1" as="geometry">
            <mxPoint x="-80" y="965" as="sourcePoint" />
            <mxPoint x="-80" y="430" as="targetPoint" />
          </mxGeometry>
        </mxCell>
        <mxCell id="eRF2-isajBVZDZ59fyhC-56" value="" style="endArrow=classic;html=1;rounded=0;labelBackgroundColor=default;fontSize=15;fontColor=default;endSize=6;strokeColor=default;strokeWidth=2;fillColor=default;startArrow=none;" edge="1" parent="1">
          <mxGeometry width="50" height="50" relative="1" as="geometry">
            <mxPoint x="-80" y="430" as="sourcePoint" />
            <mxPoint x="120" y="429.5" as="targetPoint" />
          </mxGeometry>
        </mxCell>
        <mxCell id="eRF2-isajBVZDZ59fyhC-59" value="" style="endArrow=none;html=1;rounded=0;labelBackgroundColor=default;fontSize=16;fontColor=default;strokeColor=default;strokeWidth=2;fillColor=default;" edge="1" parent="1">
          <mxGeometry width="50" height="50" relative="1" as="geometry">
            <mxPoint x="218.74999999999994" y="453.5" as="sourcePoint" />
            <mxPoint x="260.43" y="454" as="targetPoint" />
          </mxGeometry>
        </mxCell>
        <mxCell id="eRF2-isajBVZDZ59fyhC-60" value="&lt;font style=&quot;font-size: 20px&quot;&gt;+&lt;/font&gt;" style="text;html=1;align=center;verticalAlign=middle;resizable=0;points=[];autosize=1;strokeColor=none;fillColor=none;fontSize=15;fontColor=default;" vertex="1" parent="1">
          <mxGeometry x="15" y="200" width="30" height="30" as="geometry" />
        </mxCell>
        <mxCell id="eRF2-isajBVZDZ59fyhC-61" value="-" style="text;html=1;align=center;verticalAlign=middle;resizable=0;points=[];autosize=1;strokeColor=none;fillColor=none;fontSize=20;fontColor=default;" vertex="1" parent="1">
          <mxGeometry x="120" y="250" width="20" height="30" as="geometry" />
        </mxCell>
        <mxCell id="eRF2-isajBVZDZ59fyhC-62" value="&lt;font style=&quot;font-size: 20px&quot;&gt;+&lt;/font&gt;" style="text;html=1;align=center;verticalAlign=middle;resizable=0;points=[];autosize=1;strokeColor=none;fillColor=none;fontSize=15;fontColor=default;" vertex="1" parent="1">
          <mxGeometry x="15" y="350" width="30" height="30" as="geometry" />
        </mxCell>
        <mxCell id="eRF2-isajBVZDZ59fyhC-64" value="-" style="text;html=1;align=center;verticalAlign=middle;resizable=0;points=[];autosize=1;strokeColor=none;fillColor=none;fontSize=20;fontColor=default;" vertex="1" parent="1">
          <mxGeometry x="120" y="400" width="20" height="30" as="geometry" />
        </mxCell>
        <mxCell id="eRF2-isajBVZDZ59fyhC-67" value="" style="endArrow=none;html=1;rounded=0;labelBackgroundColor=default;fontSize=20;fontColor=default;endSize=6;strokeColor=default;strokeWidth=2;fillColor=default;" edge="1" parent="1">
          <mxGeometry width="50" height="50" relative="1" as="geometry">
            <mxPoint x="117" y="440" as="sourcePoint" />
            <mxPoint x="117" y="409" as="targetPoint" />
          </mxGeometry>
        </mxCell>
        <mxCell id="eRF2-isajBVZDZ59fyhC-69" value="" style="endArrow=none;html=1;rounded=0;labelBackgroundColor=default;fontSize=15;fontColor=default;endSize=6;strokeColor=default;strokeWidth=2;fillColor=default;" edge="1" parent="1">
          <mxGeometry width="50" height="50" relative="1" as="geometry">
            <mxPoint x="-80" y="429" as="sourcePoint" />
            <mxPoint x="-80" y="430" as="targetPoint" />
          </mxGeometry>
        </mxCell>
        <mxCell id="eRF2-isajBVZDZ59fyhC-71" value="-" style="text;html=1;align=center;verticalAlign=middle;resizable=0;points=[];autosize=1;strokeColor=none;fillColor=none;fontSize=20;fontColor=default;" vertex="1" parent="1">
          <mxGeometry x="120" y="650" width="20" height="30" as="geometry" />
        </mxCell>
        <mxCell id="eRF2-isajBVZDZ59fyhC-72" value="+" style="text;html=1;align=center;verticalAlign=middle;resizable=0;points=[];autosize=1;strokeColor=none;fillColor=none;fontSize=20;fontColor=default;" vertex="1" parent="1">
          <mxGeometry x="15" y="595" width="30" height="30" as="geometry" />
        </mxCell>
        <mxCell id="eRF2-isajBVZDZ59fyhC-73" value="-" style="text;html=1;align=center;verticalAlign=middle;resizable=0;points=[];autosize=1;strokeColor=none;fillColor=none;fontSize=20;fontColor=default;" vertex="1" parent="1">
          <mxGeometry x="638.3199999999999" y="310" width="20" height="30" as="geometry" />
        </mxCell>
        <mxCell id="eRF2-isajBVZDZ59fyhC-74" value="&lt;font style=&quot;font-size: 20px&quot;&gt;+&lt;/font&gt;" style="text;html=1;align=center;verticalAlign=middle;resizable=0;points=[];autosize=1;strokeColor=none;fillColor=none;fontSize=15;fontColor=default;" vertex="1" parent="1">
          <mxGeometry x="530" y="360" width="30" height="30" as="geometry" />
        </mxCell>
        <mxCell id="eRF2-isajBVZDZ59fyhC-75" value="-" style="text;html=1;align=center;verticalAlign=middle;resizable=0;points=[];autosize=1;strokeColor=none;fillColor=none;fontSize=20;fontColor=default;" vertex="1" parent="1">
          <mxGeometry x="638.3199999999999" y="700" width="20" height="30" as="geometry" />
        </mxCell>
        <mxCell id="eRF2-isajBVZDZ59fyhC-76" value="&lt;font style=&quot;font-size: 20px&quot;&gt;+&lt;/font&gt;" style="text;html=1;align=center;verticalAlign=middle;resizable=0;points=[];autosize=1;strokeColor=none;fillColor=none;fontSize=15;fontColor=default;" vertex="1" parent="1">
          <mxGeometry x="530" y="750" width="30" height="30" as="geometry" />
        </mxCell>
        <mxCell id="eRF2-isajBVZDZ59fyhC-80" value="A" style="ellipse;shape=doubleEllipse;whiteSpace=wrap;html=1;aspect=fixed;labelBackgroundColor=default;fontSize=20;fontColor=default;strokeColor=default;fillColor=default;" vertex="1" parent="1">
          <mxGeometry x="537.5" y="1020" width="40" height="40" as="geometry" />
        </mxCell>
        <mxCell id="eRF2-isajBVZDZ59fyhC-81" value="" style="endArrow=none;html=1;rounded=0;labelBackgroundColor=default;fontSize=20;fontColor=default;endSize=6;strokeColor=default;strokeWidth=2;fillColor=default;" edge="1" parent="1">
          <mxGeometry width="50" height="50" relative="1" as="geometry">
            <mxPoint x="557" y="1020" as="sourcePoint" />
            <mxPoint x="557" y="1000" as="targetPoint" />
          </mxGeometry>
        </mxCell>
        <mxCell id="eRF2-isajBVZDZ59fyhC-83" value="" style="shape=curlyBracket;whiteSpace=wrap;html=1;rounded=1;labelBackgroundColor=default;fontSize=20;fontColor=default;strokeColor=default;fillColor=default;" vertex="1" parent="1">
          <mxGeometry x="-120" y="110" width="20" height="290" as="geometry" />
        </mxCell>
        <mxCell id="eRF2-isajBVZDZ59fyhC-84" value="1" style="ellipse;whiteSpace=wrap;html=1;aspect=fixed;labelBackgroundColor=default;fontSize=20;fontColor=default;strokeColor=default;fillColor=default;" vertex="1" parent="1">
          <mxGeometry x="-160" y="237.5" width="35" height="35" as="geometry" />
        </mxCell>
        <mxCell id="eRF2-isajBVZDZ59fyhC-86" value="" style="shape=curlyBracket;whiteSpace=wrap;html=1;rounded=1;labelBackgroundColor=default;fontSize=20;fontColor=default;strokeColor=default;fillColor=default;" vertex="1" parent="1">
          <mxGeometry x="-120" y="420" width="20" height="290" as="geometry" />
        </mxCell>
        <mxCell id="eRF2-isajBVZDZ59fyhC-87" value="2" style="ellipse;whiteSpace=wrap;html=1;aspect=fixed;labelBackgroundColor=default;fontSize=20;fontColor=default;strokeColor=default;fillColor=default;" vertex="1" parent="1">
          <mxGeometry x="-160" y="547.5" width="35" height="35" as="geometry" />
        </mxCell>
        <mxCell id="eRF2-isajBVZDZ59fyhC-88" value="" style="shape=curlyBracket;whiteSpace=wrap;html=1;rounded=1;flipH=1;labelBackgroundColor=default;fontSize=20;fontColor=default;strokeColor=default;fillColor=default;" vertex="1" parent="1">
          <mxGeometry x="730" y="140" width="20" height="340" as="geometry" />
        </mxCell>
        <mxCell id="eRF2-isajBVZDZ59fyhC-92" value="3" style="ellipse;whiteSpace=wrap;html=1;aspect=fixed;labelBackgroundColor=default;fontSize=20;fontColor=default;strokeColor=default;fillColor=default;" vertex="1" parent="1">
          <mxGeometry x="760" y="292.5" width="35" height="35" as="geometry" />
        </mxCell>
        <mxCell id="eRF2-isajBVZDZ59fyhC-93" value="" style="shape=curlyBracket;whiteSpace=wrap;html=1;rounded=1;flipH=1;labelBackgroundColor=default;fontSize=20;fontColor=default;strokeColor=default;fillColor=default;" vertex="1" parent="1">
          <mxGeometry x="730" y="500" width="20" height="390" as="geometry" />
        </mxCell>
        <mxCell id="eRF2-isajBVZDZ59fyhC-94" value="4" style="ellipse;whiteSpace=wrap;html=1;aspect=fixed;labelBackgroundColor=default;fontSize=20;fontColor=default;strokeColor=default;fillColor=default;" vertex="1" parent="1">
          <mxGeometry x="760" y="677.5" width="35" height="35" as="geometry" />
        </mxCell>
        <mxCell id="eRF2-isajBVZDZ59fyhC-95" value="" style="shape=curlyBracket;whiteSpace=wrap;html=1;rounded=1;flipH=1;labelBackgroundColor=default;fontSize=20;fontColor=default;strokeColor=default;fillColor=default;" vertex="1" parent="1">
          <mxGeometry x="730" y="920" width="20" height="90" as="geometry" />
        </mxCell>
        <mxCell id="eRF2-isajBVZDZ59fyhC-96" value="5" style="ellipse;whiteSpace=wrap;html=1;aspect=fixed;labelBackgroundColor=default;fontSize=20;fontColor=default;strokeColor=default;fillColor=default;" vertex="1" parent="1">
          <mxGeometry x="760" y="947.5" width="35" height="35" as="geometry" />
        </mxCell>
        <mxCell id="eRF2-isajBVZDZ59fyhC-97" value="&lt;font style=&quot;font-size: 20px&quot;&gt;+&lt;/font&gt;" style="text;html=1;align=center;verticalAlign=middle;resizable=0;points=[];autosize=1;strokeColor=none;fillColor=none;fontSize=15;fontColor=default;" vertex="1" parent="1">
          <mxGeometry x="455.62" y="940" width="30" height="30" as="geometry" />
        </mxCell>
        <mxCell id="eRF2-isajBVZDZ59fyhC-98" value="-" style="text;html=1;align=center;verticalAlign=middle;resizable=0;points=[];autosize=1;strokeColor=none;fillColor=none;fontSize=20;fontColor=default;" vertex="1" parent="1">
          <mxGeometry x="557.5" y="990" width="20" height="30" as="geometry" />
        </mxCell>
      </root>
    </mxGraphModel>
  </diagram>
</mxfile>
